<svg height="400" width="400" version="1.1" id="Layer_1" xmlns="http://www.w3.org/2000/svg" viewBox="0 0 512.001 512.001" xml:space="preserve"><path style="fill:#ff6243" d="m110.127 211.547-7.519-58.553h306.786l-45.13 351.431H147.738l-28.422-221.32z"/><path style="opacity:.4;fill:#891c00;enable-background:new" d="m218.517 504.425-24.932-351.431h-58.26l45.131 351.431zM338.515 504.425l45.13-351.431h25.749l-45.13 351.431zM325.386 152.994l-24.932 351.431h-41.023V152.994z"/><path style="fill:#ffe477" d="M118.753 153.868s-15.653-8.584-6.059-20.702c9.594-12.118 16.663-5.554 19.188-21.712s12.623-16.663 27.771-31.811l42.919-39.385c24.237 3.535 26.257 4.548 34.336-12.623s25.358-26.257 45.752-8.079c20.394 18.178 4.741 34.336 17.87 35.345 13.128 1.01 23.227-15.148 39.89-5.049s31.811 17.168 18.178 26.257 2.02 21.207 14.138 19.187c12.118-2.02 6.059 33.326 18.683 32.821s14.643 25.752 14.643 25.752H118.753z"/><g style="opacity:.14"><path style="fill:#cd2a00" d="M254.852 54.901c13.128 1.01 23.227-15.148 39.89-5.049.333.202.665.401.998.601-1.303-6.188 2.311-18.033-12.121-30.897-18.45-16.445-34.35-10.575-43.195 3.407 15.094 16.746 2.126 30.992 14.428 31.938zM406.933 152.994c-.481-4.522-3.304-25.327-14.558-24.877-12.623.505-6.564-34.84-18.683-32.821-12.118 2.02-27.771-10.099-14.138-19.187 13.633-9.089-1.515-16.158-18.178-26.257-15.911-9.643-25.839 4.645-38.135 5.075 12.597 7.573 20.912 13.693 9.678 21.182-13.633 9.089 2.02 21.207 14.138 19.187 12.118-2.02 6.059 33.326 18.683 32.821 11.254-.45 14.078 20.355 14.558 24.877h3.418l-45.13 351.431h46.635l45.13-351.431h-3.418z"/></g><path d="M415.081 147.991a7.555 7.555 0 0 0-2.025-1.618c-2.051-13.744-8.438-27.651-20.957-27.856-1.149-2.05-2.159-7.502-2.786-10.891-.847-4.574-1.723-9.304-3.418-13.119-4.146-9.33-11.46-9.194-14.405-8.702-4.744.791-9.651-2.179-10.522-3.816.228-.314.77-.892 1.831-1.599 5.878-3.918 8.79-8.526 8.654-13.697-.247-9.384-9.945-15.137-22.223-22.421a573.134 573.134 0 0 1-4.884-2.919c-13.683-8.292-24.607-3.13-32.584.64-3.66 1.729-6.869 3.246-9.73 3.352a83.828 83.828 0 0 1-.075-1.991c-.212-7.208-.568-19.271-14.256-31.474C274.132-.211 262.421-.939 254.985.582c-10.465 2.138-19.319 9.884-24.931 21.809-2.617 5.561-4.708 9.396-6.41 10.034-2.406.901-8.666-.019-17.332-1.293l-2.647-.388a7.574 7.574 0 1 0-2.186 14.99l2.63.386c12.116 1.78 18.791 2.761 24.852.49 7.258-2.721 10.712-9.081 14.8-17.77 3.475-7.385 8.671-12.276 14.255-13.417 7.321-1.495 14.702 3.398 19.604 7.767 8.819 7.861 9.018 14.634 9.194 20.61.149 5.083.462 15.658 13.134 16.633 7.087.541 13.038-2.264 18.284-4.742 7.585-3.582 11.841-5.272 18.261-1.382 1.694 1.027 3.372 2.022 5.007 2.992 4.807 2.852 11.761 6.977 14.196 9.523-.315.265-.738.588-1.301.962-7.601 5.068-10.446 12.378-7.608 19.555 3.417 8.64 14.778 14.601 25.421 13.633.875 2.199 1.687 6.589 2.21 9.409 1.755 9.477 4.404 23.786 17.302 23.281 1.706-.07 4.236 5.117 5.72 11.755h-274.7c-.115-.071-.225-.146-.345-.212-1.163-.638-4.7-3.277-5.188-5.688-.075-.369-.302-1.491 1.425-3.672 2.923-3.692 5.246-4.908 7.937-6.315 6.07-3.177 10.867-6.586 12.796-18.929 1.208-7.729 4.202-10.008 11.438-15.514 3.905-2.972 8.767-6.67 14.206-12.111a7.573 7.573 0 0 0 0-10.711 7.573 7.573 0 0 0-10.711 0c-4.716 4.716-8.941 7.932-12.668 10.767-8.093 6.158-15.082 11.477-17.231 25.23-.903 5.779-1.506 6.095-4.851 7.846-3.32 1.738-7.869 4.117-12.791 10.335-5.035 6.361-5.17 12.256-4.395 16.08.205 1.015.509 1.972.86 2.894h-.614a7.576 7.576 0 0 0-7.513 8.538l7.519 58.553a7.575 7.575 0 0 0 15.025-1.93l-6.423-50.014h17.445l43.185 336.283H154.4l-27.572-214.71a7.575 7.575 0 0 0-15.025 1.929l28.422 221.32a7.574 7.574 0 0 0 7.512 6.61h32.688l.021.001.015-.001h158.047l.015.001.021-.001h25.718a7.574 7.574 0 0 0 7.512-6.61l45.13-351.431a7.565 7.565 0 0 0-1.823-5.966zm-106.497 348.86 23.858-336.283h42.594l-43.185 336.283h-23.267zm-41.579 0V160.568h50.25l-23.857 336.283h-26.393zm-41.432 0-23.858-336.283h50.143v336.283h-26.285zm-81.639-336.283h42.594l23.857 336.283h-23.266l-43.185-336.283zM357.6 496.851h-10.476l43.185-336.283h10.476L357.6 496.851z"/><path d="M175.984 138.001a7.524 7.524 0 0 0 1.93.252 7.608 7.608 0 0 0 7.323-5.617c.029-.108 3.014-10.818 10.693-12.174 3.937-.695 6.592-.655 8.934-.624 5.941.09 10.601-.385 16.272-7.24a165.77 165.77 0 0 0 1.725-2.132c7.145-8.927 13.902-16.041 24.256-12.691 5.049 1.636 8.669 3.811 12.169 5.915 7.901 4.748 16.071 9.657 33.002 3.176a7.575 7.575 0 0 0-5.414-14.148c-10.043 3.844-12.895 2.129-19.785-2.013-3.833-2.305-8.605-5.173-15.305-7.342-21.151-6.856-34.389 9.688-40.75 17.636-.555.694-1.077 1.346-1.567 1.939-1.149 1.389-1.668 1.682-1.659 1.682-.363.102-1.676.084-2.73.069-2.714-.038-6.431-.091-11.781.853-17.312 3.055-22.505 22.439-22.718 23.263-1.039 4.037 1.378 8.131 5.405 9.196z"/></svg>