<svg height="400px" width="400px" version="1.1" id="Layer_1" xmlns="http://www.w3.org/2000/svg" xmlns:xlink="http://www.w3.org/1999/xlink" 
			 viewBox="0 0 512.001 512.001" xml:space="preserve">
		<polygon style="fill:#FF6243;" points="110.127,211.547 102.608,152.994 409.394,152.994 364.264,504.425 147.738,504.425 
			119.316,283.105 "/>
		<g>
			<polygon style="opacity:0.4;fill:#891C00;enable-background:new    ;" points="218.517,504.425 193.585,152.994 135.325,152.994 
				180.456,504.425 	"/>
			<polygon style="opacity:0.4;fill:#891C00;enable-background:new    ;" points="338.515,504.425 383.645,152.994 409.394,152.994 
				364.264,504.425 	"/>
			<polygon style="opacity:0.4;fill:#891C00;enable-background:new    ;" points="325.386,152.994 300.454,504.425 259.431,504.425 
				259.431,152.994 	"/>
		</g>
		<path style="fill:#FFE477;" d="M118.753,153.868c0,0-15.653-8.584-6.059-20.702c9.594-12.118,16.663-5.554,19.188-21.712
			s12.623-16.663,27.771-31.811l42.919-39.385c24.237,3.535,26.257,4.548,34.336-12.623s25.358-26.257,45.752-8.079
			c20.394,18.178,4.741,34.336,17.87,35.345c13.128,1.01,23.227-15.148,39.89-5.049c16.663,10.099,31.811,17.168,18.178,26.257
			s2.02,21.207,14.138,19.187c12.118-2.02,6.059,33.326,18.683,32.821s14.643,25.752,14.643,25.752H118.753z"/>
		<g style="opacity:0.14;">
			<path style="fill:#CD2A00;" d="M254.852,54.901c13.128,1.01,23.227-15.148,39.89-5.049c0.333,0.202,0.665,0.401,0.998,0.601
				c-1.303-6.188,2.311-18.033-12.121-30.897c-18.45-16.445-34.35-10.575-43.195,3.407C255.518,39.709,242.55,53.955,254.852,54.901z"
				/>
			<path style="fill:#CD2A00;" d="M406.933,152.994c-0.481-4.522-3.304-25.327-14.558-24.877c-12.623,0.505-6.564-34.84-18.683-32.821
				c-12.118,2.02-27.771-10.099-14.138-19.187c13.633-9.089-1.515-16.158-18.178-26.257c-15.911-9.643-25.839,4.645-38.135,5.075
				c12.597,7.573,20.912,13.693,9.678,21.182c-13.633,9.089,2.02,21.207,14.138,19.187c12.118-2.02,6.059,33.326,18.683,32.821
				c11.254-0.45,14.078,20.355,14.558,24.877h3.418l-45.13,351.431h20.886h25.749l45.13-351.431H406.933z"/>
		</g>
		<path d="M415.081,147.991c-0.582-0.661-1.27-1.201-2.025-1.618c-2.051-13.744-8.438-27.651-20.957-27.856
			c-1.149-2.05-2.159-7.502-2.786-10.891c-0.847-4.574-1.723-9.304-3.418-13.119c-4.146-9.33-11.46-9.194-14.405-8.702
			c-4.744,0.791-9.651-2.179-10.522-3.816c0.228-0.314,0.77-0.892,1.831-1.599c5.878-3.918,8.79-8.526,8.654-13.697
			c-0.247-9.384-9.945-15.137-22.223-22.421c-1.595-0.946-3.232-1.917-4.884-2.919c-13.683-8.292-24.607-3.13-32.584,0.64
			c-3.66,1.729-6.869,3.246-9.73,3.352c-0.035-0.649-0.057-1.374-0.075-1.991c-0.212-7.208-0.568-19.271-14.256-31.474
			C274.132-0.211,262.421-0.939,254.985,0.582c-10.465,2.138-19.319,9.884-24.931,21.809c-2.617,5.561-4.708,9.396-6.41,10.034
			c-2.406,0.901-8.666-0.019-17.332-1.293l-2.647-0.388c-4.139-0.602-7.984,2.263-8.588,6.402c-0.604,4.139,2.262,7.984,6.402,8.588
			l2.63,0.386c12.116,1.78,18.791,2.761,24.852,0.49c7.258-2.721,10.712-9.081,14.8-17.77c3.475-7.385,8.671-12.276,14.255-13.417
			c7.321-1.495,14.702,3.398,19.604,7.767c8.819,7.861,9.018,14.634,9.194,20.61c0.149,5.083,0.462,15.658,13.134,16.633
			c7.087,0.541,13.038-2.264,18.284-4.742c7.585-3.582,11.841-5.272,18.261-1.382c1.694,1.027,3.372,2.022,5.007,2.992
			c4.807,2.852,11.761,6.977,14.196,9.523c-0.315,0.265-0.738,0.588-1.301,0.962c-7.601,5.068-10.446,12.378-7.608,19.555
			c3.417,8.64,14.778,14.601,25.421,13.633c0.875,2.199,1.687,6.589,2.21,9.409c1.755,9.477,4.404,23.786,17.302,23.281
			c1.706-0.07,4.236,5.117,5.72,11.755H122.74c-0.115-0.071-0.225-0.146-0.345-0.212c-1.163-0.638-4.7-3.277-5.188-5.688
			c-0.075-0.369-0.302-1.491,1.425-3.672c2.923-3.692,5.246-4.908,7.937-6.315c6.07-3.177,10.867-6.586,12.796-18.929
			c1.208-7.729,4.202-10.008,11.438-15.514c3.905-2.972,8.767-6.67,14.206-12.111c2.958-2.958,2.958-7.754,0-10.711
			c-2.958-2.958-7.754-2.958-10.711,0c-4.716,4.716-8.941,7.932-12.668,10.767c-8.093,6.158-15.082,11.477-17.231,25.23
			c-0.903,5.779-1.506,6.095-4.851,7.846c-3.32,1.738-7.869,4.117-12.791,10.335c-5.035,6.361-5.17,12.256-4.395,16.08
			c0.205,1.015,0.509,1.972,0.86,2.894h-0.614c-2.177,0-4.249,0.937-5.687,2.571c-1.438,1.635-2.104,3.808-1.826,5.967l7.519,58.553
			c0.532,4.149,4.326,7.074,8.477,6.547c4.149-0.533,7.08-4.328,6.548-8.477l-6.423-50.014h17.445l43.185,336.283h-17.446
			l-27.572-214.71c-0.533-4.149-4.328-7.082-8.477-6.548c-4.149,0.533-7.08,4.328-6.548,8.477l28.422,221.32
			c0.485,3.779,3.702,6.61,7.512,6.61h32.688c0.007,0,0.014,0.001,0.021,0.001c0.005,0,0.01-0.001,0.015-0.001h38.037
			c0.003,0,0.007,0,0.01,0c0.005,0,0.009,0,0.014,0h81.925c0.005,0,0.009,0,0.014,0c0.003,0,0.007,0,0.01,0h38.037
			c0.005,0,0.01,0.001,0.015,0.001c0.007,0,0.014-0.001,0.021-0.001h25.718c3.81,0,7.027-2.831,7.512-6.61l45.13-351.431
			C417.183,151.8,416.519,149.626,415.081,147.991z M308.584,496.851l23.858-336.283h42.594l-43.185,336.283H308.584z
			 M267.005,496.851V160.568h50.25l-23.857,336.283H267.005z M225.573,496.851l-23.858-336.283h50.143v336.283H225.573z
			 M143.934,160.568h42.594l23.857,336.283h-23.266L143.934,160.568z M357.6,496.851h-10.476l43.185-336.283h10.476L357.6,496.851z"/>
		<path d="M175.984,138.001c0.645,0.171,1.293,0.252,1.93,0.252c3.344,0,6.409-2.241,7.323-5.617
			c0.029-0.108,3.014-10.818,10.693-12.174c3.937-0.695,6.592-0.655,8.934-0.624c5.941,0.09,10.601-0.385,16.272-7.24
			c0.539-0.651,1.114-1.368,1.725-2.132c7.145-8.927,13.902-16.041,24.256-12.691c5.049,1.636,8.669,3.811,12.169,5.915
			c7.901,4.748,16.071,9.657,33.002,3.176c3.907-1.495,5.861-5.874,4.367-9.781c-1.495-3.907-5.874-5.862-9.781-4.367
			c-10.043,3.844-12.895,2.129-19.785-2.013c-3.833-2.305-8.605-5.173-15.305-7.342c-21.151-6.856-34.389,9.688-40.75,17.636
			c-0.555,0.694-1.077,1.346-1.567,1.939c-1.149,1.389-1.668,1.682-1.659,1.682c-0.363,0.102-1.676,0.084-2.73,0.069
			c-2.714-0.038-6.431-0.091-11.781,0.853c-17.312,3.055-22.505,22.439-22.718,23.263C169.54,132.842,171.957,136.936,175.984,138.001
			z"/>
		</svg>